<svg width="40" height="40" viewBox="0 0 40 40" fill="none" xmlns="http://www.w3.org/2000/svg">
<path fill-rule="evenodd" clip-rule="evenodd" d="M20 13.3334C15.3976 13.3334 11.6667 17.0643 11.6667 21.6667C11.6667 26.2691 15.3976 30 20 30C24.6024 30 28.3333 26.2691 28.3333 21.6667C28.3333 17.0643 24.6024 13.3334 20 13.3334ZM15 21.6667C15 18.9053 17.2386 16.6667 20 16.6667C22.7614 16.6667 25 18.9053 25 21.6667C25 24.4281 22.7614 26.6667 20 26.6667C17.2386 26.6667 15 24.4281 15 21.6667Z" fill="#576E8F"/>
<path fill-rule="evenodd" clip-rule="evenodd" d="M15 3.33337C14.4427 3.33337 13.9224 3.61188 13.6132 4.07554L10.7747 8.33337H5C3.67392 8.33337 2.40215 8.86016 1.46447 9.79784C0.526784 10.7355 0 12.0073 0 13.3334V31.6667C0 32.9928 0.526785 34.2646 1.46447 35.2022C2.40215 36.1399 3.67392 36.6667 5 36.6667H35C36.3261 36.6667 37.5979 36.1399 38.5355 35.2022C39.4732 34.2646 40 32.9928 40 31.6667V13.3334C40 12.0073 39.4732 10.7355 38.5355 9.79784C37.5978 8.86016 36.3261 8.33337 35 8.33337H29.2253L26.3867 4.07554C26.0776 3.61188 25.5573 3.33337 25 3.33337H15ZM13.0534 10.9245L15.892 6.66671H24.108L26.9466 10.9245C27.2557 11.3882 27.7761 11.6667 28.3333 11.6667H35C35.442 11.6667 35.8659 11.8423 36.1785 12.1549C36.4911 12.4674 36.6667 12.8913 36.6667 13.3334V31.6667C36.6667 32.1087 36.4911 32.5327 36.1785 32.8452C35.8659 33.1578 35.442 33.3334 35 33.3334H5C4.55797 33.3334 4.13405 33.1578 3.82149 32.8452C3.50893 32.5327 3.33333 32.1087 3.33333 31.6667V13.3334C3.33333 12.8913 3.50893 12.4674 3.82149 12.1549C4.13405 11.8423 4.55797 11.6667 5 11.6667H11.6667C12.2239 11.6667 12.7443 11.3882 13.0534 10.9245Z" fill="#576E8F"/>
</svg>
