<svg width="46" height="46" viewBox="0 0 46 46" fill="none" xmlns="http://www.w3.org/2000/svg">
<path d="M30.7233 15.2768C31.5369 16.0904 31.5369 17.4095 30.7233 18.2231L25.9464 22.9999L30.7233 27.7768C31.5369 28.5904 31.5369 29.9095 30.7233 30.7231C29.9097 31.5367 28.5906 31.5367 27.777 30.7231L23.0002 25.9462L18.2233 30.7231C17.4097 31.5367 16.0906 31.5367 15.277 30.7231C14.4634 29.9095 14.4634 28.5904 15.277 27.7768L20.0539 22.9999L15.277 18.2231C14.4634 17.4095 14.4634 16.0904 15.277 15.2768C16.0906 14.4632 17.4097 14.4632 18.2233 15.2768L23.0002 20.0536L27.777 15.2768C28.5906 14.4632 29.9097 14.4632 30.7233 15.2768Z" fill="#D4E4ED"/>
<path fill-rule="evenodd" clip-rule="evenodd" d="M0.0834961 22.9999C0.0834961 10.3434 10.3436 0.083252 23.0002 0.083252C35.6567 0.083252 45.9168 10.3434 45.9168 22.9999C45.9168 35.6564 35.6567 45.9166 23.0002 45.9166C10.3436 45.9166 0.0834961 35.6564 0.0834961 22.9999ZM23.0002 4.24992C12.6448 4.24992 4.25016 12.6446 4.25016 22.9999C4.25016 33.3553 12.6448 41.7499 23.0002 41.7499C33.3555 41.7499 41.7502 33.3553 41.7502 22.9999C41.7502 12.6446 33.3555 4.24992 23.0002 4.24992Z" fill="#D4E4ED"/>
</svg>
