<svg width="40" height="40" viewBox="0 0 40 40" fill="none" xmlns="http://www.w3.org/2000/svg">
<path fill-rule="evenodd" clip-rule="evenodd" d="M21.0234 2.01783C20.4215 1.54972 19.5788 1.54972 18.9769 2.01783L3.97693 13.6845C3.57095 14.0003 3.3335 14.4858 3.3335 15.0001V33.3334C3.3335 34.6595 3.86028 35.9313 4.79796 36.8689C5.73564 37.8066 7.00741 38.3334 8.3335 38.3334H31.6668C32.9929 38.3334 34.2647 37.8066 35.2024 36.8689C36.14 35.9313 36.6668 34.6595 36.6668 33.3334V15.0001C36.6668 14.4858 36.4294 14.0003 36.0234 13.6845L21.0234 2.01783ZM26.6668 35.0001H31.6668C32.1089 35.0001 32.5328 34.8245 32.8453 34.5119C33.1579 34.1994 33.3335 33.7754 33.3335 33.3334V15.8152L20.0002 5.44485L6.66683 15.8152V33.3334C6.66683 33.7754 6.84242 34.1994 7.15498 34.5119C7.46755 34.8245 7.89147 35.0001 8.3335 35.0001H13.3335V20.0001C13.3335 19.0796 14.0797 18.3334 15.0002 18.3334H25.0002C25.9206 18.3334 26.6668 19.0796 26.6668 20.0001V35.0001ZM16.6668 35.0001V21.6667H23.3335V35.0001H16.6668Z" fill="#2D3648"/>
</svg>
