<svg width="47" height="46" viewBox="0 0 47 46" fill="none" xmlns="http://www.w3.org/2000/svg">
<path fill-rule="evenodd" clip-rule="evenodd" d="M22.7195 9.86728C18.4777 9.86728 15.0391 13.2839 15.0391 17.4985C15.0391 21.713 18.4777 25.1296 22.7195 25.1296C26.9613 25.1296 30.3999 21.713 30.3999 17.4985C30.3999 13.2839 26.9613 9.86728 22.7195 9.86728ZM18.1113 17.4985C18.1113 14.9697 20.1744 12.9197 22.7195 12.9197C25.2646 12.9197 27.3278 14.9697 27.3278 17.4985C27.3278 20.0272 25.2646 22.0772 22.7195 22.0772C20.1744 22.0772 18.1113 20.0272 18.1113 17.4985Z" fill="#2D3648"/>
<path d="M16.5752 28.1821C14.5382 28.1821 12.5847 28.9861 11.1443 30.4172C9.70396 31.8483 8.89478 33.7894 8.89478 35.8133V38.8657C8.89478 39.7087 9.5825 40.392 10.4309 40.392C11.2792 40.392 11.9669 39.7087 11.9669 38.8657V35.8133C11.9669 34.5989 12.4524 33.4343 13.3167 32.5756C14.1809 31.717 15.353 31.2346 16.5752 31.2346H28.8638C30.086 31.2346 31.2581 31.717 32.1224 32.5756C32.9866 33.4343 33.4721 34.5989 33.4721 35.8133V38.8657C33.4721 39.7087 34.1598 40.392 35.0082 40.392C35.8565 40.392 36.5442 39.7087 36.5442 38.8657V35.8133C36.5442 33.7894 35.7351 31.8483 34.2947 30.4172C32.8543 28.9861 30.9008 28.1821 28.8638 28.1821H16.5752Z" fill="#2D3648"/>
<path d="M44.7968 23C44.7968 34.865 35.1136 44.5 23.1484 44.5C11.1832 44.5 1.5 34.865 1.5 23C1.5 11.135 11.1832 1.5 23.1484 1.5C35.1136 1.5 44.7968 11.135 44.7968 23Z" stroke="#313160" stroke-width="3"/>
</svg>
